<?xml version="1.0" encoding="UTF-8"?><svg xmlns="http://www.w3.org/2000/svg" xmlns:xlink="http://www.w3.org/1999/xlink" width="375" zoomAndPan="magnify" viewBox="0 0 375 374.999991" height="374.999991" preserveAspectRatio="xMidYMid meet" version="1.0"><defs><clipPath id="clip-0"><path d="M 109 34.472656 L 322 34.472656 L 322 186 L 109 186 Z M 109 34.472656 " clip-rule="nonzero"/></clipPath><clipPath id="clip-1"><path d="M 52.835938 85 L 266 85 L 266 237 L 52.835938 237 Z M 52.835938 85 " clip-rule="nonzero"/></clipPath><clipPath id="clip-2"><path d="M 52.972656 189.359375 L 265.914062 189.359375 L 265.914062 340.472656 L 52.972656 340.472656 Z M 52.972656 189.359375 " clip-rule="nonzero"/></clipPath></defs><g clip-path="url(#clip-0)"><path fill="rgb(34.509277%, 49.01886%, 62.348938%)" d="M 246.355469 137.902344 C 239.117188 137.902344 236.675781 136.882812 214.054688 123.636719 C 207.734375 119.964844 199.996094 115.484375 190.414062 109.976562 C 199.996094 104.582031 207.636719 100.09375 213.953125 96.429688 C 236.878906 83.183594 239.320312 82.058594 246.355469 82.058594 C 261.734375 82.058594 274.167969 94.59375 274.269531 110.082031 C 274.167969 125.46875 261.636719 137.902344 246.355469 137.902344 Z M 321.953125 110.082031 C 321.953125 110.082031 321.953125 109.878906 321.953125 109.773438 C 321.851562 68.199219 287.925781 34.472656 246.355469 34.472656 C 225.363281 34.472656 214.566406 40.6875 182.773438 59.234375 C 167.699219 67.996094 147.015625 80.023438 117.160156 96.222656 C 112.167969 98.976562 109.007812 104.171875 109.007812 109.976562 C 109.007812 115.6875 112.167969 120.984375 117.160156 123.734375 C 147.417969 140.140625 168.304688 152.265625 183.488281 161.132812 C 215.886719 179.984375 225.667969 185.589844 246.453125 185.589844 C 288.023438 185.589844 321.953125 151.65625 321.953125 110.082031 " fill-opacity="1" fill-rule="nonzero"/></g><g clip-path="url(#clip-1)"><path fill="rgb(83.918762%, 87.838745%, 92.939758%)" d="M 128.570312 133.722656 C 135.804688 133.722656 138.25 134.738281 160.972656 147.988281 C 167.289062 151.65625 175.03125 156.140625 184.609375 161.539062 C 175.03125 166.941406 167.390625 171.324219 161.074219 175.09375 C 138.152344 188.339844 135.703125 189.457031 128.675781 189.457031 C 113.289062 189.457031 100.859375 176.929688 100.859375 161.4375 C 100.753906 146.152344 113.289062 133.722656 128.570312 133.722656 Z M 192.152344 212.386719 C 207.226562 203.625 227.910156 191.601562 257.765625 175.296875 C 262.753906 172.546875 265.914062 167.347656 265.914062 161.539062 C 265.914062 155.832031 262.753906 150.535156 257.765625 147.785156 C 227.503906 131.375 206.71875 119.253906 191.539062 110.386719 C 159.136719 91.535156 149.359375 85.933594 128.570312 85.933594 C 86.902344 85.933594 52.972656 119.867188 52.972656 161.4375 L 52.972656 161.644531 C 53.074219 203.214844 87 236.945312 128.570312 236.945312 C 149.5625 237.148438 160.257812 230.933594 192.152344 212.386719 " fill-opacity="1" fill-rule="nonzero"/></g><path fill="rgb(18.818665%, 21.569824%, 24.708557%)" d="M 246.355469 241.121094 C 239.117188 241.121094 236.675781 240.101562 214.054688 226.859375 C 207.734375 223.1875 199.996094 218.707031 190.414062 213.203125 C 199.996094 207.800781 207.636719 203.320312 213.953125 199.648438 C 236.878906 186.402344 239.320312 185.285156 246.355469 185.285156 C 261.734375 185.285156 274.167969 197.816406 274.269531 213.304688 C 274.167969 228.792969 261.636719 241.121094 246.355469 241.121094 Z M 321.953125 213.304688 C 321.953125 213.304688 321.953125 213.101562 321.953125 213 C 321.851562 171.421875 287.925781 137.699219 246.355469 137.699219 C 225.363281 137.699219 214.566406 143.910156 182.773438 162.457031 C 167.699219 171.21875 147.015625 183.246094 117.160156 199.445312 C 112.167969 202.195312 109.007812 207.394531 109.007812 213.203125 C 109.007812 218.910156 112.167969 224.207031 117.160156 226.957031 C 147.417969 243.363281 168.304688 255.488281 183.488281 264.355469 C 215.886719 283.203125 225.667969 288.808594 246.453125 288.808594 C 288.023438 288.914062 321.953125 254.980469 321.953125 213.304688 " fill-opacity="1" fill-rule="nonzero"/><g clip-path="url(#clip-2)"><path fill="rgb(34.509277%, 49.01886%, 62.348938%)" d="M 128.570312 237.148438 C 135.804688 237.148438 138.25 238.167969 160.972656 251.414062 C 167.289062 255.082031 175.03125 259.566406 184.609375 264.964844 C 175.132812 270.367188 167.390625 274.746094 161.074219 278.417969 C 138.152344 291.664062 135.703125 292.785156 128.675781 292.785156 C 113.289062 292.785156 100.859375 280.25 100.859375 264.765625 C 100.753906 249.578125 113.289062 237.148438 128.570312 237.148438 Z M 192.152344 315.8125 C 207.226562 307.050781 227.910156 295.027344 257.765625 278.722656 C 262.753906 275.972656 265.914062 270.773438 265.914062 264.964844 C 265.914062 259.257812 262.753906 253.960938 257.765625 251.210938 C 227.503906 234.703125 206.617188 222.679688 191.433594 213.816406 C 159.039062 194.964844 149.253906 189.359375 128.472656 189.359375 C 86.902344 189.457031 52.972656 223.390625 52.972656 264.964844 L 52.972656 265.167969 C 53.074219 306.746094 87 340.472656 128.570312 340.472656 C 149.5625 340.574219 160.257812 334.359375 192.152344 315.8125 " fill-opacity="1" fill-rule="nonzero"/></g></svg>